<svg width="106" height="24" viewBox="0 0 106 24" fill="none" xmlns="http://www.w3.org/2000/svg">
<path d="M7.908 18H0.564V1.224H7.092C8.228 1.224 9.204 1.36 10.02 1.632C10.852 1.904 11.476 2.272 11.892 2.736C12.644 3.6 13.02 4.576 13.02 5.664C13.02 6.976 12.596 7.952 11.748 8.592C11.46 8.816 11.26 8.96 11.148 9.024C11.036 9.072 10.836 9.16 10.548 9.288C11.588 9.512 12.412 9.984 13.02 10.704C13.644 11.408 13.956 12.288 13.956 13.344C13.956 14.512 13.556 15.544 12.756 16.44C11.828 17.48 10.212 18 7.908 18ZM4.308 8.016H6.084C7.124 8.016 7.892 7.904 8.388 7.68C8.9 7.456 9.156 6.976 9.156 6.24C9.156 5.488 8.924 4.992 8.46 4.752C7.996 4.512 7.212 4.392 6.108 4.392H4.308V8.016ZM4.308 14.832H6.876C7.948 14.832 8.748 14.704 9.276 14.448C9.82 14.176 10.092 13.656 10.092 12.888C10.092 12.104 9.804 11.592 9.228 11.352C8.668 11.096 7.764 10.968 6.516 10.968H4.308V14.832ZM27.8189 18H24.4349V16.44C23.5069 17.608 22.3549 18.192 20.9789 18.192C19.6189 18.192 18.4749 17.8 17.5469 17.016C16.6189 16.216 16.1549 15.16 16.1549 13.848C16.1549 12.52 16.6349 11.528 17.5949 10.872C18.5549 10.216 19.8669 9.888 21.5309 9.888H24.2189V9.816C24.2189 8.44 23.4909 7.752 22.0349 7.752C21.4109 7.752 20.7469 7.88 20.0429 8.136C19.3549 8.376 18.7709 8.68 18.2909 9.048L16.6829 6.72C18.3789 5.488 20.3149 4.872 22.4909 4.872C24.0589 4.872 25.3389 5.264 26.3309 6.048C27.3229 6.832 27.8189 8.072 27.8189 9.768V18ZM24.1949 13.08V12.456H21.9389C20.4989 12.456 19.7789 12.904 19.7789 13.8C19.7789 14.264 19.9469 14.624 20.2829 14.88C20.6349 15.12 21.1309 15.24 21.7709 15.24C22.4109 15.24 22.9709 15.048 23.4509 14.664C23.9469 14.264 24.1949 13.736 24.1949 13.08ZM34.8009 10.8V18H31.2009V5.088H34.8009V6.528C35.8889 5.424 37.1129 4.872 38.4729 4.872C39.8329 4.872 40.9689 5.352 41.8809 6.312C42.8089 7.272 43.2729 8.552 43.2729 10.152V18H39.6729V10.704C39.6729 8.72 38.9449 7.728 37.4889 7.728C36.7689 7.728 36.1369 7.992 35.5929 8.52C35.0649 9.032 34.8009 9.792 34.8009 10.8ZM51.789 18.192C50.269 18.192 48.909 17.544 47.709 16.248C46.509 14.952 45.909 13.344 45.909 11.424C45.909 9.504 46.493 7.936 47.661 6.72C48.829 5.488 50.197 4.872 51.765 4.872C53.333 4.872 54.613 5.424 55.605 6.528V0.191999H59.205V18H55.605V16.296C54.597 17.56 53.325 18.192 51.789 18.192ZM49.533 11.568C49.533 12.608 49.845 13.464 50.469 14.136C51.093 14.792 51.821 15.12 52.653 15.12C53.485 15.12 54.189 14.792 54.765 14.136C55.357 13.464 55.653 12.608 55.653 11.568C55.653 10.512 55.357 9.64 54.765 8.952C54.189 8.248 53.477 7.896 52.629 7.896C51.781 7.896 51.053 8.248 50.445 8.952C49.837 9.656 49.533 10.528 49.533 11.568ZM73.6814 18H70.2974V16.44C69.3694 17.608 68.2174 18.192 66.8414 18.192C65.4814 18.192 64.3374 17.8 63.4094 17.016C62.4814 16.216 62.0174 15.16 62.0174 13.848C62.0174 12.52 62.4974 11.528 63.4574 10.872C64.4174 10.216 65.7294 9.888 67.3934 9.888H70.0814V9.816C70.0814 8.44 69.3534 7.752 67.8974 7.752C67.2734 7.752 66.6094 7.88 65.9054 8.136C65.2174 8.376 64.6334 8.68 64.1534 9.048L62.5454 6.72C64.2414 5.488 66.1774 4.872 68.3534 4.872C69.9214 4.872 71.2014 5.264 72.1934 6.048C73.1854 6.832 73.6814 8.072 73.6814 9.768V18ZM70.0574 13.08V12.456H67.8014C66.3614 12.456 65.6414 12.904 65.6414 13.8C65.6414 14.264 65.8094 14.624 66.1454 14.88C66.4974 15.12 66.9934 15.24 67.6334 15.24C68.2734 15.24 68.8334 15.048 69.3134 14.664C69.8094 14.264 70.0574 13.736 70.0574 13.08ZM86.1114 11.28C86.1114 10.24 85.8234 9.424 85.2474 8.832C84.6714 8.24 83.9594 7.944 83.1114 7.944C82.2634 7.944 81.5274 8.24 80.9034 8.832C80.2954 9.424 79.9914 10.232 79.9914 11.256C79.9914 12.28 80.2874 13.112 80.8794 13.752C81.4874 14.376 82.2234 14.688 83.0874 14.688C83.9514 14.688 84.6714 14.376 85.2474 13.752C85.8234 13.128 86.1114 12.304 86.1114 11.28ZM86.6154 15.816C85.4794 17.08 84.0634 17.712 82.3674 17.712C80.6874 17.712 79.2634 17.144 78.0954 16.008C76.9434 14.856 76.3674 13.328 76.3674 11.424C76.3674 9.504 76.9594 7.936 78.1434 6.72C79.3434 5.488 80.7114 4.872 82.2474 4.872C83.7834 4.872 85.0554 5.504 86.0634 6.768V5.064H89.6634V16.32C89.6634 17.472 89.4634 18.496 89.0634 19.392C88.6634 20.288 88.1274 20.992 87.4554 21.504C86.1274 22.56 84.5594 23.088 82.7514 23.088C81.7914 23.088 80.8074 22.928 79.7994 22.608C78.8074 22.304 77.9354 21.864 77.1834 21.288L78.5754 18.576C79.7594 19.472 81.0074 19.92 82.3194 19.92C83.6474 19.92 84.6954 19.592 85.4634 18.936C86.2314 18.28 86.6154 17.24 86.6154 15.816ZM104.355 16.128C102.899 17.504 101.187 18.192 99.2192 18.192C97.2672 18.192 95.6512 17.592 94.3712 16.392C93.0912 15.176 92.4512 13.552 92.4512 11.52C92.4512 9.488 93.0992 7.872 94.3952 6.672C95.7072 5.472 97.2512 4.872 99.0272 4.872C100.803 4.872 102.307 5.408 103.539 6.48C104.787 7.552 105.411 9.024 105.411 10.896V12.816H96.0032C96.1152 13.52 96.4832 14.096 97.1072 14.544C97.7312 14.992 98.4352 15.216 99.2192 15.216C100.483 15.216 101.523 14.792 102.339 13.944L104.355 16.128ZM101.763 10.248C101.683 9.48 101.395 8.888 100.899 8.472C100.403 8.056 99.7952 7.848 99.0752 7.848C98.3712 7.848 97.7232 8.064 97.1312 8.496C96.5392 8.928 96.1952 9.512 96.0992 10.248H101.763Z" fill="#252B42"/>
</svg>
