<svg width="150" height="142" viewBox="0 0 150 142" fill="none" xmlns="http://www.w3.org/2000/svg">
<path d="M132.69 54.5541C127.995 54.5541 123.863 56.5149 120.827 59.5826C109.652 51.771 94.5951 46.7425 77.9108 46.2049L86.5816 6.73585L114.19 12.9978C114.19 19.8289 119.7 25.3951 126.461 25.3951C133.348 25.3951 138.888 19.6708 138.888 12.8396C138.888 6.00845 133.379 0.28418 126.461 0.28418C121.64 0.28418 117.477 3.22538 115.411 7.24186L84.9226 0.410683C83.3888 -0.000452876 81.8863 1.10645 81.4793 2.65612L71.9634 46.1733C55.4043 46.869 40.5043 51.8975 29.298 59.7091C26.2617 56.5149 21.9732 54.5541 17.2778 54.5541C-0.126353 54.5541 -5.82341 78.147 10.1096 86.2116C9.54613 88.71 9.29571 91.3666 9.29571 94.0231C9.29571 120.526 38.8453 142 75.1249 142C111.561 142 141.111 120.526 141.111 94.0231C141.111 91.3666 140.829 88.5835 140.14 86.0851C155.76 77.9888 150.001 54.5541 132.69 54.5541ZM35.3707 87.8877C35.3707 80.93 40.88 75.3323 47.7978 75.3323C54.5592 75.3323 60.0684 80.8984 60.0684 87.8877C60.0684 94.7189 54.5592 100.285 47.7978 100.285C40.9113 100.317 35.3707 94.7189 35.3707 87.8877ZM102.452 117.458C91.0579 128.97 58.9102 128.97 47.5161 117.458C46.264 116.351 46.264 114.39 47.5161 113.125C48.6117 112.018 50.5524 112.018 51.648 113.125C60.3501 122.139 89.211 122.297 98.2888 113.125C99.3844 112.018 101.325 112.018 102.421 113.125C103.704 114.39 103.704 116.351 102.452 117.458ZM102.202 100.317C95.4402 100.317 89.931 94.7505 89.931 87.9193C89.931 80.9617 95.4402 75.3639 102.202 75.3639C109.088 75.3639 114.629 80.93 114.629 87.9193C114.597 94.7189 109.088 100.317 102.202 100.317Z" fill="#737373"/>
</svg>
