<svg width="152" height="92" viewBox="0 0 152 92" fill="none" xmlns="http://www.w3.org/2000/svg">
<path d="M42.7332 33.3706C42.5616 38.7691 45.2593 41.1597 45.3261 42.6779C45.2943 42.9869 45.189 43.2838 45.019 43.5438C44.849 43.8038 44.6193 44.0193 44.349 44.1723L41.2985 46.3078C40.9037 46.5846 40.4384 46.7433 39.9568 46.7655C39.8543 46.7607 38.005 47.2016 35.076 40.6615C33.2891 42.8923 31.0155 44.6846 28.4292 45.9012C25.843 47.1179 23.0127 47.7265 20.155 47.6807C16.2751 47.8928 5.76056 45.4784 6.30155 34.2835C5.92262 25.1598 14.4186 19.492 23.2054 19.9711C24.8975 19.9758 28.3531 20.0592 34.404 21.4655V17.7426C35.045 11.436 30.9007 6.54287 23.725 7.27696C23.153 7.27935 19.1016 7.15779 12.8005 9.6866C11.0465 10.4922 10.8224 10.3587 10.2386 10.3587C8.47262 10.3587 9.19949 5.23914 9.5379 4.59085C10.7795 3.06546 18.084 0.217273 25.2526 0.257791C30.0457 -0.166154 34.8132 1.31329 38.5245 4.37634C40.0331 6.064 41.1841 8.03995 41.9078 10.1849C42.6316 12.3298 42.9132 14.5991 42.7356 16.8559L42.7332 33.3706ZM22.1378 41.0905C29.8664 40.9785 33.1385 36.3308 33.8844 33.8283C34.4707 31.4329 34.373 29.9171 34.373 27.2977C32.0685 26.7447 28.7511 26.1417 24.9451 26.137C21.3346 25.8653 14.7404 27.4788 14.9978 33.8259C14.7022 37.8276 17.6479 41.3098 22.1378 41.0905ZM62.871 46.5843C60.9978 46.7559 60.1256 45.426 59.8492 44.1127L47.9809 4.86971C47.7498 4.20712 47.5972 3.52308 47.5234 2.82473C47.4796 2.53682 47.5519 2.24331 47.7244 2.00868C47.8969 1.77405 48.1554 1.61751 48.4433 1.57344C48.5005 1.5639 47.9357 1.57344 53.7458 1.57344C55.8383 1.3637 56.5199 3.01064 56.7367 4.04505L65.2494 37.6107L73.152 4.04505C73.2784 3.27758 73.8527 1.4066 76.2025 1.60442H80.2921C80.8092 1.56152 82.9398 1.48525 83.3139 4.07603L91.2785 38.0707L100.065 4.07603C100.18 3.55644 100.713 1.36608 103.087 1.60442H107.787C107.989 1.57344 109.252 1.41137 109.038 3.6494C108.935 4.09033 109.851 1.10867 96.4667 44.1437C96.1926 45.457 95.318 46.7869 93.4448 46.6153H88.9906C86.3835 46.8894 86.0093 44.3129 85.9688 44.0531L78.0662 11.3693L70.2541 44.0198C70.216 44.2796 69.8418 46.856 67.2322 46.5819H62.871V46.5843ZM128.046 47.9262C126.645 47.9286 119.962 47.8547 114.376 44.997C113.82 44.7613 113.346 44.3658 113.014 43.8604C112.683 43.355 112.509 42.7626 112.515 42.1583V39.5961C112.515 37.5821 113.993 37.9516 114.619 38.1923C117.012 39.16 118.547 39.8941 121.485 40.4804C130.22 42.2751 134.061 39.9322 135.003 39.4126C138.137 37.5512 138.384 33.292 136.254 31.0826C133.756 28.9875 132.565 28.9089 123.592 26.0774C122.486 25.7699 113.178 22.8335 113.156 13.5978C113.011 6.86701 119.126 0.207739 129.724 0.262557C132.743 0.260174 140.789 1.24691 142.967 3.98546C143.289 4.48359 143.449 5.06992 143.425 5.66339V8.07302C143.425 9.13126 143.039 9.66038 142.264 9.66038C140.427 9.45541 137.167 6.9981 130.548 7.09821C128.906 7.0124 121.042 7.3151 121.395 13.0496C121.292 17.5686 127.736 19.2632 128.473 19.4586C137.162 22.0732 140.067 22.507 143.515 26.5088C147.6 31.8119 145.398 38.0207 144.552 39.7225C140.005 48.6579 128.246 47.9309 128.046 47.9262ZM137.627 72.9187C120.937 85.2458 96.7098 91.8073 76.0238 91.8073C48.1121 91.9914 21.1411 81.7272 0.412714 63.0323C-1.1435 61.6285 0.22921 59.705 2.12145 60.7752C25.1154 73.9297 51.1494 80.8414 77.6396 80.8245C97.4217 80.7184 116.988 76.705 135.215 69.0147C138.022 67.823 140.403 70.8738 137.627 72.9187ZM144.583 64.9843C142.448 62.2386 130.456 63.702 125.086 64.3432C123.468 64.5267 123.194 63.1229 124.66 62.0861C134.209 55.372 149.893 57.2954 151.694 59.5525C153.494 61.8096 151.206 77.5259 142.267 85.0336C140.894 86.1944 139.581 85.5818 140.191 84.0564C142.202 78.9917 146.718 67.7324 144.583 64.9843Z" fill="#737373"/>
</svg>
